<mxfile host="app.diagrams.net" modified="2024-01-23T08:08:09.825Z" agent="Mozilla/5.0 (Macintosh; Intel Mac OS X 10_15_7) AppleWebKit/537.36 (KHTML, like Gecko) Chrome/120.0.0.0 Safari/537.36 Edg/120.0.0.0" etag="8ktRcVQHO4_1hDpToI74" version="22.1.21" type="github">
  <diagram name="第 1 页" id="bILNH9FkT7BqDJtDoxzQ">
    <mxGraphModel dx="2261" dy="771" grid="1" gridSize="10" guides="1" tooltips="1" connect="1" arrows="1" fold="1" page="1" pageScale="1" pageWidth="827" pageHeight="1169" math="0" shadow="0">
      <root>
        <mxCell id="0" />
        <mxCell id="1" parent="0" />
        <mxCell id="4c4bXw9lh5W2jgaI4jPR-57" value="" style="rounded=0;whiteSpace=wrap;html=1;fillColor=#fff2cc;strokeColor=#d6b656;" vertex="1" parent="1">
          <mxGeometry y="450" width="480" height="130" as="geometry" />
        </mxCell>
        <mxCell id="4c4bXw9lh5W2jgaI4jPR-8" value="" style="rounded=0;whiteSpace=wrap;html=1;fillColor=#fff2cc;strokeColor=#d6b656;" vertex="1" parent="1">
          <mxGeometry y="130" width="960" height="130" as="geometry" />
        </mxCell>
        <mxCell id="4c4bXw9lh5W2jgaI4jPR-5" value="" style="rounded=0;whiteSpace=wrap;html=1;fillColor=default;dashed=1;" vertex="1" parent="1">
          <mxGeometry y="140" width="480" height="80" as="geometry" />
        </mxCell>
        <mxCell id="4c4bXw9lh5W2jgaI4jPR-1" value="原始数据 byte[]" style="rounded=0;whiteSpace=wrap;html=1;fillColor=#dae8fc;strokeColor=#6c8ebf;" vertex="1" parent="1">
          <mxGeometry y="40" width="960" height="40" as="geometry" />
        </mxCell>
        <mxCell id="4c4bXw9lh5W2jgaI4jPR-4" value="Search Window" style="rounded=0;whiteSpace=wrap;html=1;fillColor=#f5f5f5;fontColor=#333333;strokeColor=#666666;" vertex="1" parent="1">
          <mxGeometry y="160" width="360" height="40" as="geometry" />
        </mxCell>
        <mxCell id="4c4bXw9lh5W2jgaI4jPR-7" value="滑动窗口" style="text;html=1;strokeColor=none;fillColor=none;align=center;verticalAlign=middle;whiteSpace=wrap;rounded=0;" vertex="1" parent="1">
          <mxGeometry x="420" y="196" width="60" height="30" as="geometry" />
        </mxCell>
        <mxCell id="4c4bXw9lh5W2jgaI4jPR-9" value="Buffer" style="text;html=1;strokeColor=none;fillColor=none;align=center;verticalAlign=middle;whiteSpace=wrap;rounded=0;" vertex="1" parent="1">
          <mxGeometry x="450" y="230" width="60" height="30" as="geometry" />
        </mxCell>
        <mxCell id="4c4bXw9lh5W2jgaI4jPR-47" value="&lt;font style=&quot;font-size: 15px;&quot;&gt;&lt;b&gt;压缩前&lt;/b&gt;&lt;/font&gt;" style="text;html=1;strokeColor=none;fillColor=none;align=center;verticalAlign=middle;whiteSpace=wrap;rounded=0;" vertex="1" parent="1">
          <mxGeometry x="-200" y="40" width="60" height="40" as="geometry" />
        </mxCell>
        <mxCell id="4c4bXw9lh5W2jgaI4jPR-48" value="&lt;font style=&quot;font-size: 15px;&quot;&gt;&lt;b&gt;压缩中&lt;/b&gt;&lt;/font&gt;" style="text;html=1;strokeColor=none;fillColor=none;align=center;verticalAlign=middle;whiteSpace=wrap;rounded=0;" vertex="1" parent="1">
          <mxGeometry x="-200" y="161" width="60" height="39" as="geometry" />
        </mxCell>
        <mxCell id="4c4bXw9lh5W2jgaI4jPR-49" value="" style="group" vertex="1" connectable="0" parent="1">
          <mxGeometry y="310" width="520" height="40" as="geometry" />
        </mxCell>
        <mxCell id="4c4bXw9lh5W2jgaI4jPR-46" value="......" style="rounded=0;whiteSpace=wrap;html=1;" vertex="1" parent="4c4bXw9lh5W2jgaI4jPR-49">
          <mxGeometry x="380" width="140" height="40" as="geometry" />
        </mxCell>
        <mxCell id="4c4bXw9lh5W2jgaI4jPR-16" value="" style="group;fillColor=#dae8fc;strokeColor=#6c8ebf;" vertex="1" connectable="0" parent="4c4bXw9lh5W2jgaI4jPR-49">
          <mxGeometry width="50" height="40" as="geometry" />
        </mxCell>
        <mxCell id="4c4bXw9lh5W2jgaI4jPR-10" value="1" style="rounded=0;whiteSpace=wrap;html=1;fillColor=#d5e8d4;strokeColor=#82b366;" vertex="1" parent="4c4bXw9lh5W2jgaI4jPR-16">
          <mxGeometry width="10" height="40" as="geometry" />
        </mxCell>
        <mxCell id="4c4bXw9lh5W2jgaI4jPR-11" value="one&lt;br&gt;byte" style="rounded=0;whiteSpace=wrap;html=1;fillColor=#dae8fc;strokeColor=#6c8ebf;" vertex="1" parent="4c4bXw9lh5W2jgaI4jPR-16">
          <mxGeometry x="10" width="40" height="40" as="geometry" />
        </mxCell>
        <mxCell id="4c4bXw9lh5W2jgaI4jPR-17" value="" style="group;fillColor=#dae8fc;strokeColor=#6c8ebf;container=0;" vertex="1" connectable="0" parent="4c4bXw9lh5W2jgaI4jPR-49">
          <mxGeometry x="50" width="50" height="40" as="geometry" />
        </mxCell>
        <mxCell id="4c4bXw9lh5W2jgaI4jPR-21" value="1" style="rounded=0;whiteSpace=wrap;html=1;fillColor=#d5e8d4;strokeColor=#82b366;" vertex="1" parent="4c4bXw9lh5W2jgaI4jPR-49">
          <mxGeometry x="100" width="10" height="40" as="geometry" />
        </mxCell>
        <mxCell id="4c4bXw9lh5W2jgaI4jPR-22" value="one&lt;br&gt;byte" style="rounded=0;whiteSpace=wrap;html=1;fillColor=#dae8fc;strokeColor=#6c8ebf;" vertex="1" parent="4c4bXw9lh5W2jgaI4jPR-49">
          <mxGeometry x="110" width="40" height="40" as="geometry" />
        </mxCell>
        <mxCell id="4c4bXw9lh5W2jgaI4jPR-43" value="" style="group;fillColor=#dae8fc;strokeColor=#6c8ebf;container=0;" vertex="1" connectable="0" parent="4c4bXw9lh5W2jgaI4jPR-49">
          <mxGeometry x="330" width="50" height="40" as="geometry" />
        </mxCell>
        <mxCell id="4c4bXw9lh5W2jgaI4jPR-44" value="1" style="rounded=0;whiteSpace=wrap;html=1;fillColor=#d5e8d4;strokeColor=#82b366;" vertex="1" parent="4c4bXw9lh5W2jgaI4jPR-49">
          <mxGeometry x="330" width="10" height="40" as="geometry" />
        </mxCell>
        <mxCell id="4c4bXw9lh5W2jgaI4jPR-45" value="one&lt;br&gt;byte" style="rounded=0;whiteSpace=wrap;html=1;fillColor=#dae8fc;strokeColor=#6c8ebf;" vertex="1" parent="4c4bXw9lh5W2jgaI4jPR-49">
          <mxGeometry x="340" width="40" height="40" as="geometry" />
        </mxCell>
        <mxCell id="4c4bXw9lh5W2jgaI4jPR-18" value="1" style="rounded=0;whiteSpace=wrap;html=1;fillColor=#d5e8d4;strokeColor=#82b366;" vertex="1" parent="4c4bXw9lh5W2jgaI4jPR-49">
          <mxGeometry x="50" width="10" height="40" as="geometry" />
        </mxCell>
        <mxCell id="4c4bXw9lh5W2jgaI4jPR-19" value="one&lt;br&gt;byte" style="rounded=0;whiteSpace=wrap;html=1;fillColor=#dae8fc;strokeColor=#6c8ebf;" vertex="1" parent="4c4bXw9lh5W2jgaI4jPR-49">
          <mxGeometry x="60" width="40" height="40" as="geometry" />
        </mxCell>
        <mxCell id="4c4bXw9lh5W2jgaI4jPR-35" value="0" style="rounded=0;whiteSpace=wrap;html=1;fillColor=#d5e8d4;strokeColor=#82b366;" vertex="1" parent="4c4bXw9lh5W2jgaI4jPR-49">
          <mxGeometry x="150" width="10" height="40" as="geometry" />
        </mxCell>
        <mxCell id="4c4bXw9lh5W2jgaI4jPR-36" value="match index" style="rounded=0;whiteSpace=wrap;html=1;fillColor=#e1d5e7;strokeColor=#9673a6;" vertex="1" parent="4c4bXw9lh5W2jgaI4jPR-49">
          <mxGeometry x="160" width="50" height="40" as="geometry" />
        </mxCell>
        <mxCell id="4c4bXw9lh5W2jgaI4jPR-37" value="match length" style="rounded=0;whiteSpace=wrap;html=1;fillColor=#e1d5e7;strokeColor=#9673a6;" vertex="1" parent="4c4bXw9lh5W2jgaI4jPR-49">
          <mxGeometry x="210" width="30" height="40" as="geometry" />
        </mxCell>
        <mxCell id="4c4bXw9lh5W2jgaI4jPR-40" value="0" style="rounded=0;whiteSpace=wrap;html=1;fillColor=#d5e8d4;strokeColor=#82b366;" vertex="1" parent="4c4bXw9lh5W2jgaI4jPR-49">
          <mxGeometry x="240" width="10" height="40" as="geometry" />
        </mxCell>
        <mxCell id="4c4bXw9lh5W2jgaI4jPR-41" value="match index" style="rounded=0;whiteSpace=wrap;html=1;fillColor=#e1d5e7;strokeColor=#9673a6;" vertex="1" parent="4c4bXw9lh5W2jgaI4jPR-49">
          <mxGeometry x="250" width="50" height="40" as="geometry" />
        </mxCell>
        <mxCell id="4c4bXw9lh5W2jgaI4jPR-42" value="match length" style="rounded=0;whiteSpace=wrap;html=1;fillColor=#e1d5e7;strokeColor=#9673a6;" vertex="1" parent="4c4bXw9lh5W2jgaI4jPR-49">
          <mxGeometry x="300" width="30" height="40" as="geometry" />
        </mxCell>
        <mxCell id="4c4bXw9lh5W2jgaI4jPR-50" value="&lt;font style=&quot;font-size: 15px;&quot;&gt;&lt;b&gt;压缩后&lt;/b&gt;&lt;/font&gt;" style="text;html=1;strokeColor=none;fillColor=none;align=center;verticalAlign=middle;whiteSpace=wrap;rounded=0;" vertex="1" parent="1">
          <mxGeometry x="-200" y="310" width="60" height="40" as="geometry" />
        </mxCell>
        <mxCell id="4c4bXw9lh5W2jgaI4jPR-51" value="" style="shape=flexArrow;endArrow=classic;html=1;rounded=0;width=8;endSize=7.67;" edge="1" parent="1">
          <mxGeometry width="50" height="50" relative="1" as="geometry">
            <mxPoint x="-120" y="59.5" as="sourcePoint" />
            <mxPoint x="-50" y="59.5" as="targetPoint" />
          </mxGeometry>
        </mxCell>
        <mxCell id="4c4bXw9lh5W2jgaI4jPR-52" value="" style="shape=flexArrow;endArrow=classic;html=1;rounded=0;width=8;endSize=7.67;" edge="1" parent="1">
          <mxGeometry width="50" height="50" relative="1" as="geometry">
            <mxPoint x="-120" y="180" as="sourcePoint" />
            <mxPoint x="-50" y="180" as="targetPoint" />
          </mxGeometry>
        </mxCell>
        <mxCell id="4c4bXw9lh5W2jgaI4jPR-53" value="" style="shape=flexArrow;endArrow=classic;html=1;rounded=0;width=8;endSize=7.67;" edge="1" parent="1">
          <mxGeometry width="50" height="50" relative="1" as="geometry">
            <mxPoint x="-120" y="329.5" as="sourcePoint" />
            <mxPoint x="-50" y="329.5" as="targetPoint" />
          </mxGeometry>
        </mxCell>
        <mxCell id="4c4bXw9lh5W2jgaI4jPR-54" value="" style="rounded=0;whiteSpace=wrap;html=1;fillColor=default;dashed=1;" vertex="1" parent="1">
          <mxGeometry x="480" y="140" width="480" height="80" as="geometry" />
        </mxCell>
        <mxCell id="4c4bXw9lh5W2jgaI4jPR-3" value="原始数据 byte[]" style="rounded=0;whiteSpace=wrap;html=1;fillColor=#dae8fc;strokeColor=#6c8ebf;" vertex="1" parent="1">
          <mxGeometry x="360" y="160" width="600" height="40" as="geometry" />
        </mxCell>
        <mxCell id="4c4bXw9lh5W2jgaI4jPR-55" value="滑动窗口" style="text;html=1;strokeColor=none;fillColor=none;align=center;verticalAlign=middle;whiteSpace=wrap;rounded=0;" vertex="1" parent="1">
          <mxGeometry x="900" y="196" width="60" height="30" as="geometry" />
        </mxCell>
        <mxCell id="4c4bXw9lh5W2jgaI4jPR-56" value="" style="rounded=0;whiteSpace=wrap;html=1;fillColor=default;dashed=1;" vertex="1" parent="1">
          <mxGeometry y="460" width="480" height="80" as="geometry" />
        </mxCell>
        <mxCell id="4c4bXw9lh5W2jgaI4jPR-60" value="Buffer" style="text;html=1;strokeColor=none;fillColor=none;align=center;verticalAlign=middle;whiteSpace=wrap;rounded=0;" vertex="1" parent="1">
          <mxGeometry x="420" y="550" width="60" height="30" as="geometry" />
        </mxCell>
        <mxCell id="4c4bXw9lh5W2jgaI4jPR-61" value="滑动窗口" style="text;html=1;strokeColor=none;fillColor=none;align=center;verticalAlign=middle;whiteSpace=wrap;rounded=0;" vertex="1" parent="1">
          <mxGeometry x="422" y="517" width="60" height="30" as="geometry" />
        </mxCell>
        <mxCell id="4c4bXw9lh5W2jgaI4jPR-62" value="&lt;font style=&quot;font-size: 15px;&quot;&gt;&lt;b&gt;解压中&lt;/b&gt;&lt;/font&gt;" style="text;html=1;strokeColor=none;fillColor=none;align=center;verticalAlign=middle;whiteSpace=wrap;rounded=0;" vertex="1" parent="1">
          <mxGeometry x="-200" y="481" width="60" height="39" as="geometry" />
        </mxCell>
        <mxCell id="4c4bXw9lh5W2jgaI4jPR-63" value="" style="shape=flexArrow;endArrow=classic;html=1;rounded=0;width=8;endSize=7.67;" edge="1" parent="1">
          <mxGeometry width="50" height="50" relative="1" as="geometry">
            <mxPoint x="-120" y="500" as="sourcePoint" />
            <mxPoint x="-50" y="500" as="targetPoint" />
          </mxGeometry>
        </mxCell>
        <mxCell id="4c4bXw9lh5W2jgaI4jPR-86" value="" style="group" vertex="1" connectable="0" parent="1">
          <mxGeometry y="480" width="480" height="40" as="geometry" />
        </mxCell>
        <mxCell id="4c4bXw9lh5W2jgaI4jPR-58" value="one byte" style="rounded=0;whiteSpace=wrap;html=1;fillColor=#dae8fc;strokeColor=#6c8ebf;" vertex="1" parent="4c4bXw9lh5W2jgaI4jPR-86">
          <mxGeometry width="40" height="40" as="geometry" />
        </mxCell>
        <mxCell id="4c4bXw9lh5W2jgaI4jPR-59" value="one byte" style="rounded=0;whiteSpace=wrap;html=1;fillColor=#dae8fc;strokeColor=#6c8ebf;" vertex="1" parent="4c4bXw9lh5W2jgaI4jPR-86">
          <mxGeometry x="40" width="40" height="40" as="geometry" />
        </mxCell>
        <mxCell id="4c4bXw9lh5W2jgaI4jPR-64" value="one byte" style="rounded=0;whiteSpace=wrap;html=1;fillColor=#dae8fc;strokeColor=#6c8ebf;" vertex="1" parent="4c4bXw9lh5W2jgaI4jPR-86">
          <mxGeometry x="80" width="40" height="40" as="geometry" />
        </mxCell>
        <mxCell id="4c4bXw9lh5W2jgaI4jPR-84" value="......" style="rounded=0;whiteSpace=wrap;html=1;" vertex="1" parent="4c4bXw9lh5W2jgaI4jPR-86">
          <mxGeometry x="120" width="360" height="40" as="geometry" />
        </mxCell>
        <mxCell id="4c4bXw9lh5W2jgaI4jPR-88" value="one byte" style="rounded=0;whiteSpace=wrap;html=1;fillColor=#dae8fc;strokeColor=#6c8ebf;" vertex="1" parent="1">
          <mxGeometry y="650" width="40" height="40" as="geometry" />
        </mxCell>
        <mxCell id="4c4bXw9lh5W2jgaI4jPR-89" value="one byte" style="rounded=0;whiteSpace=wrap;html=1;fillColor=#dae8fc;strokeColor=#6c8ebf;" vertex="1" parent="1">
          <mxGeometry x="40" y="650" width="40" height="40" as="geometry" />
        </mxCell>
        <mxCell id="4c4bXw9lh5W2jgaI4jPR-90" value="one byte" style="rounded=0;whiteSpace=wrap;html=1;fillColor=#dae8fc;strokeColor=#6c8ebf;" vertex="1" parent="1">
          <mxGeometry x="80" y="650" width="40" height="40" as="geometry" />
        </mxCell>
        <mxCell id="4c4bXw9lh5W2jgaI4jPR-91" value="......" style="rounded=0;whiteSpace=wrap;html=1;" vertex="1" parent="1">
          <mxGeometry x="120" y="650" width="840" height="40" as="geometry" />
        </mxCell>
        <mxCell id="4c4bXw9lh5W2jgaI4jPR-92" value="&lt;span style=&quot;font-size: 15px;&quot;&gt;&lt;b&gt;解压后&lt;/b&gt;&lt;/span&gt;" style="text;html=1;strokeColor=none;fillColor=none;align=center;verticalAlign=middle;whiteSpace=wrap;rounded=0;" vertex="1" parent="1">
          <mxGeometry x="-200" y="650" width="60" height="40" as="geometry" />
        </mxCell>
        <mxCell id="4c4bXw9lh5W2jgaI4jPR-93" value="" style="shape=flexArrow;endArrow=classic;html=1;rounded=0;width=8;endSize=7.67;" edge="1" parent="1">
          <mxGeometry width="50" height="50" relative="1" as="geometry">
            <mxPoint x="-120" y="669.5" as="sourcePoint" />
            <mxPoint x="-50" y="669.5" as="targetPoint" />
          </mxGeometry>
        </mxCell>
        <mxCell id="4c4bXw9lh5W2jgaI4jPR-94" value="" style="endArrow=none;html=1;rounded=0;" edge="1" parent="1">
          <mxGeometry width="50" height="50" relative="1" as="geometry">
            <mxPoint x="-200" y="400" as="sourcePoint" />
            <mxPoint x="1040" y="400" as="targetPoint" />
          </mxGeometry>
        </mxCell>
      </root>
    </mxGraphModel>
  </diagram>
</mxfile>
